<svg xmlns="http://www.w3.org/2000/svg" xmlns:xlink="http://www.w3.org/1999/xlink" width="1080" zoomAndPan="magnify" viewBox="0 0 810 809.999993" height="1080" preserveAspectRatio="xMidYMid meet" version="1.2"><defs><clipPath id="b3a8047603"><path d="M 196 22 L 594 22 L 594 776 L 196 776 Z M 196 22 "/></clipPath><clipPath id="6d51ed3f70"><path d="M 694.0625 88.292969 L 380.199219 833.382812 L 115.476562 721.871094 L 429.34375 -23.222656 Z M 694.0625 88.292969 "/></clipPath><clipPath id="364a121100"><path d="M 694.0625 88.292969 L 380.199219 833.382812 L 115.476562 721.871094 L 429.34375 -23.222656 Z M 694.0625 88.292969 "/></clipPath></defs><g id="b30f35aede"><g clip-rule="nonzero" clip-path="url(#b3a8047603)"><g clip-rule="nonzero" clip-path="url(#6d51ed3f70)"><g clip-rule="nonzero" clip-path="url(#364a121100)"><path style=" stroke:none;fill-rule:nonzero;fill:#b59573;fill-opacity:1;" d="M 317.496094 255.882812 C 323.3125 238.992188 329.960938 222.433594 337.445312 206.214844 C 344.929688 189.992188 353.210938 174.1875 362.289062 158.796875 C 371.367188 143.410156 381.195312 128.519531 391.773438 114.121094 C 402.351562 99.722656 413.625 85.894531 425.597656 72.632812 C 443.25 53.066406 463.25 36.746094 488.785156 28.398438 C 524.242188 16.707031 537.675781 22.460938 560.1875 51.890625 C 589.863281 90.550781 597.9375 132.8125 590.453125 179.953125 C 578.78125 253.226562 560.109375 324.917969 542.65625 396.839844 C 532.011719 440.765625 520.972656 484.949219 505.097656 527.097656 C 472.15625 614.792969 426.96875 694.699219 346.015625 748.386719 C 333.945312 756.378906 322.34375 765.042969 308.578125 770.253906 C 267.707031 785.640625 227.941406 768.464844 211.433594 728.015625 C 196.0625 690.347656 194.015625 651.09375 200.203125 611.5 C 206.851562 571.546875 216.71875 532.40625 229.8125 494.078125 C 255.054688 417.0625 281.746094 340.753906 317.496094 255.882812 Z M 317.496094 255.882812 "/></g></g></g></g></svg>